<svg version="1.1" width="500" height="500" viewBox="0 0 710 710" xmlns="http://www.w3.org/2000/svg">
  <defs></defs>
  <g transform="matrix(1, 0, 0, 1, -146, 0)">
    <svg viewBox="0 0 395.52 279.72" data-background-color="#ffffff" preserveAspectRatio="xMidYMid meet" height="707" width="1000" xmlns="http://www.w3.org/2000/svg">
      <g id="tight-bounds" transform="matrix(1,0,0,1,0.2400000000000091,0.14009872228757558)">
        <svg viewBox="0 0 395.52 279.72" height="279.72" width="395.52">
          <g>
            <svg viewBox="0 0 395.52 279.72" height="279.72" width="395.52">
              <g>
                <svg viewBox="0 0 395.52 279.72" height="279.72" width="395.52">
                  <g>
                    <svg viewBox="0 0 395.52 279.72" height="279.72" width="395.52">
                      <g>
                        <svg viewBox="0 0 395.52 279.72" height="279.72" width="395.52">
                          <g transform="matrix(1,0,0,1,120.11116038462727,73.92936372216631)">
                            <svg viewBox="0 0 155.29767923074544 131.8612725556674" height="131.8612725556674" width="155.29767923074544">
                              <g>
                                <svg xmlns="http://www.w3.org/2000/svg" version="1.1" x="0" y="0" viewBox="0 15.346782684326172 99.61991882324219 84.58599853515625" enable-background="new 0 0 100 100" height="131.8612725556674" width="155.29767923074544" class="icon-o-0" data-fill-palette-color="accent" id="o-0">
                                  <g fill="#471aa0" data-fill-palette-color="accent">
                                    <path d="M52.7 86.9c0 0 3.5 3.1 6.2 2.5 0 0 2.5-4.1 7.2-6.7 4.7-2.6 22.9-11.6 25.2-16.1 0 0-15.1-15-43.1-18.2 0 0-1.7 1.6 1 11.3C51.9 69.5 54.6 83.9 52.7 86.9z" fill="#471aa0" data-fill-palette-color="accent"></path>
                                    <path d="M92.4 64.5c0 0 6.3-4.7 6.5-14.1 0 0-14.8-15.4-43.8-18.6 0 0-7.1 5-6.8 14.4C48.2 46.2 73.9 47.8 92.4 64.5z" fill="#471aa0" data-fill-palette-color="accent"></path>
                                    <path d="M56.8 29.6c0 0 20.6-0.9 42.8 17.5 0 0 0.9-12-9.4-18 0 0-1.5-0.6-0.3-2.8 1.1-2.2 2.8-4.7 2.8-4.7s-4.1-7.4-13.2-6.1c0 0-1.5 6.8-3.9 6.7C73.3 22.1 65.2 21.7 56.8 29.6z" fill="#471aa0" data-fill-palette-color="accent"></path>
                                    <path d="M49.2 98.6c0 0 1 2 2.7 1.1l5-9.1c0 0-2.1 0.2-3.7-1.8L49.2 98.6z" fill="#471aa0" data-fill-palette-color="accent"></path>
                                    <path d="M46.1 43.8c0 0 0.1-0.7 0.6-2.3 0 0-6.2-2.1-10.7 2.6-4.5 4.7-2.8 10.9-1.3 14.5 1.6 4.1 5.7 21.1-9.9 23C9.1 83.5 6.1 84.7 0 89v2.4c0 0 5.3-3.7 9.2-4.9C14 85.1 23 84.1 25 83.9c2.7-0.2 9.3-2.7 11.4-6.9 2.5-5.2 2.8-10.8 1-16.6-1.7-5.6-3.9-8.2-0.6-14.1C39.1 42.1 46.1 43.8 46.1 43.8z" fill="#471aa0" data-fill-palette-color="accent"></path>
                                  </g>
                                </svg>
                              </g>
                            </svg>
                          </g>
                          <path d="M89.06 106.968L66.386 98.934 63.812 106.198 60.269 104.942 67.274 85.175 70.817 86.43 68.203 93.807 90.876 101.841ZM103.518 79.172V79.172C102.337 80.942 100.985 82.304 99.464 83.257 97.947 84.205 96.338 84.781 94.639 84.986 92.935 85.188 91.197 85.04 89.424 84.542 87.652 84.045 85.936 83.242 84.277 82.134V82.134C82.589 81.008 81.182 79.726 80.054 78.287 78.925 76.849 78.137 75.302 77.687 73.647 77.243 71.995 77.173 70.291 77.478 68.533 77.786 66.77 78.531 65.004 79.712 63.234V63.234C80.919 61.425 82.28 60.026 83.793 59.036 85.304 58.051 86.909 57.449 88.61 57.229 90.311 57.01 92.048 57.141 93.822 57.624 95.602 58.11 97.355 58.93 99.08 60.082V60.082C100.79 61.223 102.197 62.529 103.303 64 104.404 65.468 105.172 67.041 105.606 68.718 106.045 70.389 106.097 72.114 105.763 73.892 105.433 75.664 104.685 77.424 103.518 79.172ZM100.599 77.044V77.044C101.416 75.82 101.836 74.63 101.858 73.473 101.887 72.32 101.635 71.216 101.105 70.16 100.574 69.105 99.863 68.128 98.972 67.23 98.08 66.332 97.119 65.539 96.088 64.851V64.851C95.051 64.159 93.935 63.557 92.738 63.045 91.541 62.534 90.335 62.222 89.117 62.111 87.895 61.996 86.733 62.173 85.631 62.641 84.529 63.11 83.563 63.967 82.731 65.213V65.213C81.917 66.432 81.497 67.617 81.468 68.77 81.446 69.927 81.705 71.036 82.247 72.099 82.783 73.159 83.5 74.139 84.397 75.041 85.284 75.944 86.232 76.732 87.241 77.406V77.406C88.278 78.098 89.4 78.691 90.608 79.187 91.806 79.684 93.017 79.99 94.24 80.105 95.457 80.216 96.615 80.044 97.715 79.591 98.809 79.134 99.77 78.285 100.599 77.044ZM98.529 43.823L96.55 42.492 103.066 36.561C104.433 35.316 105.855 34.371 107.331 33.727 108.802 33.088 110.284 32.904 111.777 33.176 113.271 33.439 114.728 34.349 116.147 35.908V35.908C117.441 37.33 118.151 38.814 118.275 40.359 118.399 41.913 118.091 43.422 117.351 44.884 116.612 46.346 115.604 47.657 114.33 48.818V48.818L112.028 50.913 119.545 59.171 115.692 62.679ZM105.765 39.187L103.382 41.355 109.574 48.158 111.935 46.009C112.984 45.054 113.488 44.003 113.448 42.856 113.413 41.705 112.945 40.634 112.044 39.644V39.644C111.102 38.609 110.087 38.031 109 37.91 107.912 37.788 106.834 38.214 105.765 39.187ZM137.96 15.9L136.604 13.959 141.911 11.701 151.33 33.835 161.368 29.563 162.84 33.022 147.943 39.361ZM165.464 6.184L164.465 4.018 181.624 0.676 182.343 4.366 170.854 6.603 172.358 14.324 181.152 12.611 181.871 16.301 173.077 18.014 174.734 26.525 186.223 24.287 186.941 27.977 170.338 31.211ZM206.443 28.795V28.795C204.237 28.697 202.323 28.249 200.699 27.454 199.076 26.658 197.737 25.576 196.684 24.208 195.63 22.847 194.861 21.267 194.377 19.467 193.9 17.674 193.707 15.737 193.8 13.658V13.658C193.891 11.638 194.279 9.78 194.965 8.086 195.651 6.391 196.599 4.924 197.809 3.684 199.019 2.444 200.462 1.499 202.136 0.851 203.811 0.202 205.688-0.075 207.768 0.017V0.017C208.675 0.058 209.687 0.199 210.805 0.442 211.922 0.684 213.005 1.024 214.054 1.463 215.096 1.901 215.957 2.454 216.637 3.121V3.121L213.75 6.486C213.077 5.646 212.174 4.986 211.041 4.504 209.908 4.022 208.825 3.758 207.792 3.711V3.711C206.322 3.646 205.067 3.888 204.027 4.439 202.987 4.99 202.143 5.755 201.495 6.735 200.841 7.721 200.354 8.824 200.034 10.044 199.714 11.258 199.525 12.51 199.468 13.801V13.801C199.366 16.08 199.6 18.048 200.17 19.706 200.746 21.37 201.62 22.667 202.793 23.595 203.973 24.517 205.41 25.016 207.106 25.092V25.092C208.165 25.139 209.298 25.044 210.503 24.806 211.701 24.567 212.975 24.136 214.323 23.513V23.513L215.757 26.394C214.742 26.986 213.755 27.469 212.796 27.844 211.844 28.22 210.856 28.485 209.834 28.638 208.812 28.798 207.681 28.85 206.443 28.795ZM228.001 31.846L234.612 8.717 227.202 6.599 228.235 2.985 248.399 8.748 247.366 12.363 239.842 10.212 233.231 33.34ZM260.304 13.994L265.509 16.91 256.467 33.056C255.564 34.67 255.326 36.235 255.753 37.751 256.181 39.267 257.201 40.477 258.815 41.38V41.38C260.452 42.297 262.016 42.55 263.508 42.139 265.002 41.722 266.213 40.687 267.139 39.032V39.032L276.181 22.886 279.929 24.985 271.5 40.038C270.201 42.358 268.738 43.985 267.112 44.921 265.49 45.851 263.782 46.228 261.989 46.052 260.201 45.879 258.399 45.284 256.583 44.267V44.267C253.512 42.547 251.619 40.397 250.906 37.817 250.184 35.24 250.683 32.416 252.403 29.344V29.344L259.72 16.278ZM290.742 36.675L291.951 34.619 298.787 41.269C300.003 42.452 300.958 43.705 301.652 45.026 302.34 46.353 302.61 47.711 302.46 49.101 302.306 50.495 301.559 51.882 300.218 53.26V53.26C299.474 54.025 298.558 54.567 297.47 54.887 296.382 55.207 295.272 55.302 294.141 55.172 293.009 55.042 291.985 54.707 291.068 54.167V54.167L287.975 69.554 283.727 65.421 286.835 51.159 285.338 49.703 276.699 58.584 272.964 54.951ZM295.782 43.645L293.444 41.37 287.932 47.037 289.671 48.729C290.379 49.418 291.101 49.949 291.838 50.324 292.565 50.698 293.305 50.826 294.058 50.708 294.807 50.594 295.553 50.155 296.297 49.39V49.39C296.88 48.791 297.22 48.151 297.318 47.47 297.417 46.789 297.326 46.118 297.045 45.456 296.768 44.798 296.347 44.195 295.782 43.645ZM318.571 65.682L320.774 69.195 302.44 92.311 299.45 87.543 304.754 80.989 300.353 73.972 292.123 75.858 289.783 72.126ZM307.248 77.947L313.756 70.45 304.2 73.086ZM334.396 96.752V96.752C334.867 98.09 335.144 99.465 335.227 100.877 335.308 102.283 335.183 103.624 334.852 104.9V104.9L330.894 103.511C331.242 102.664 331.412 101.729 331.403 100.706 331.39 99.692 331.237 98.769 330.944 97.937V97.937C330.613 96.999 330.07 96.235 329.313 95.644 328.557 95.053 327.663 94.939 326.631 95.302V95.302C325.937 95.547 325.401 95.929 325.022 96.449 324.645 96.976 324.374 97.595 324.21 98.306 324.042 99.026 323.907 99.808 323.804 100.653V100.653C323.69 101.628 323.576 102.641 323.462 103.694 323.352 104.738 323.125 105.749 322.781 106.728 322.445 107.71 321.917 108.596 321.197 109.384 320.483 110.17 319.482 110.79 318.194 111.243V111.243C316.449 111.858 314.816 111.952 313.295 111.525 311.772 111.091 310.452 110.288 309.335 109.114 308.223 107.931 307.38 106.527 306.808 104.901V104.901C306.294 103.445 305.946 101.937 305.762 100.378 305.572 98.821 305.625 97.277 305.922 95.746V95.746L310.494 96.033C310.026 97.139 309.738 98.327 309.63 99.595 309.53 100.867 309.682 102.079 310.088 103.229V103.229C310.357 103.992 310.753 104.657 311.276 105.225 311.799 105.793 312.418 106.193 313.133 106.426 313.839 106.655 314.611 106.622 315.449 106.327V106.327C316.312 106.023 316.938 105.535 317.327 104.864 317.722 104.191 318 103.393 318.161 102.472 318.324 101.558 318.453 100.588 318.549 99.563V99.563C318.627 98.65 318.741 97.734 318.889 96.818 319.039 95.907 319.28 95.046 319.612 94.233 319.942 93.414 320.44 92.672 321.106 92.009 321.772 91.346 322.652 90.821 323.746 90.436V90.436C325.491 89.821 327.065 89.751 328.47 90.226 329.872 90.695 331.076 91.519 332.081 92.697 333.087 93.875 333.858 95.227 334.396 96.752ZM90.784 199.776V199.776C88.216 200.725 85.739 201.051 83.353 200.752 80.973 200.452 78.858 199.548 77.007 198.041 75.157 196.534 73.749 194.474 72.784 191.863V191.863L69.291 182.414 93.664 173.405C93.688 173.396 93.856 173.285 94.166 173.071 94.471 172.866 94.789 172.646 95.12 172.411 95.446 172.185 95.629 172.05 95.67 172.006V172.006L99.386 182.061C100.391 184.779 100.681 187.294 100.256 189.606 99.834 191.925 98.808 193.958 97.178 195.706 95.552 197.444 93.421 198.801 90.784 199.776ZM88.649 194.458V194.458C89.887 194.001 91.041 193.415 92.113 192.701 93.179 191.989 94.07 191.151 94.788 190.186 95.505 189.221 95.963 188.144 96.159 186.954 96.349 185.767 96.185 184.471 95.665 183.066V183.066L94.134 178.924 74.743 186.092 76.301 190.308C76.982 192.149 77.984 193.464 79.308 194.254 80.632 195.044 82.112 195.426 83.749 195.4 85.393 195.372 87.026 195.058 88.649 194.458ZM109.759 207.616L111.249 205.689 122.356 219.612 119.356 222.005 111.92 212.685 105.655 217.683 111.354 224.827 108.361 227.215 102.662 220.071 95.759 225.578 103.194 234.898 100.194 237.292 89.447 223.821ZM131.02 227.375L135.766 230.455 131.599 247.05C131.4 247.783 131.175 248.506 130.925 249.221 130.675 249.936 130.412 250.651 130.138 251.366V251.366C130.801 250.721 131.475 250.096 132.161 249.49 132.843 248.889 133.552 248.302 134.288 247.729V247.729L147.002 237.747 150.614 240.092 126.933 258.568 123.747 256.5ZM162.259 247.339L162.438 244.925 168.087 246.582 161.191 270.104 171.859 273.231 170.779 276.915 154.948 272.274ZM193.192 251.151V251.151L199.074 251.393 197.909 279.72 192.563 279.5 193.631 253.538C193.632 253.512 193.594 253.314 193.516 252.946 193.445 252.585 193.377 252.207 193.314 251.813 193.25 251.426 193.209 251.205 193.192 251.151ZM226.736 246.397V246.397C227.713 246.15 228.834 245.972 230.099 245.864 231.366 245.763 232.622 245.78 233.866 245.917 235.111 246.053 236.202 246.39 237.137 246.926V246.926L235.177 250.694C234.222 250.299 233.381 249.999 232.652 249.794 231.925 249.595 231.176 249.5 230.406 249.51 229.634 249.514 228.708 249.652 227.628 249.925V249.925C226.079 250.317 224.846 250.944 223.929 251.805 223.016 252.658 222.366 253.667 221.976 254.832 221.594 255.996 221.418 257.247 221.449 258.586 221.485 259.917 221.674 261.261 222.017 262.617V262.617C222.308 263.768 222.745 264.929 223.329 266.101 223.917 267.265 224.649 268.304 225.522 269.218 226.39 270.134 227.39 270.801 228.521 271.219 229.652 271.637 230.906 271.673 232.281 271.325V271.325C233.457 271.027 234.432 270.528 235.205 269.826 235.972 269.126 236.497 268.282 236.78 267.294 237.062 266.3 237.051 265.202 236.747 264V264L236.16 261.677 230.452 263.12 230.098 259.691 240.539 257.051 242.21 263.983C242.513 265.287 242.847 266.581 243.212 267.863 243.575 269.139 243.961 270.419 244.368 271.704V271.704L241.697 272.38 239.703 269.848C238.767 271.309 237.735 272.448 236.609 273.267 235.482 274.085 234.058 274.712 232.335 275.147V275.147C230.304 275.661 228.435 275.747 226.728 275.406 225.015 275.067 223.491 274.392 222.155 273.383 220.827 272.379 219.699 271.095 218.77 269.531 217.841 267.968 217.137 266.235 216.655 264.332V264.332C215.927 261.453 215.826 258.795 216.351 256.357 216.883 253.918 218.021 251.832 219.764 250.099 221.507 248.366 223.831 247.132 226.736 246.397ZM279.888 251.971L272.859 241.431 262.964 248.029 269.993 258.569 265.55 261.532 251.134 239.913C251.12 239.891 250.973 239.754 250.693 239.502 250.423 239.252 250.146 238.987 249.863 238.705 249.583 238.43 249.418 238.277 249.366 238.248V238.248L254.264 234.982 260.84 244.844 270.735 238.246 264.159 228.384 268.61 225.416 284.339 249.003ZM304.936 226.864L285.261 212.244 280.575 218.549 277.494 216.26 290.246 199.099 293.327 201.389 288.564 207.798 308.239 222.418ZM298.478 178.928V178.928C298.961 177.565 299.623 176.302 300.464 175.137 301.302 173.964 302.258 172.98 303.334 172.187V172.187L305.581 175.82C304.762 176.268 304.032 176.9 303.392 177.714 302.745 178.526 302.272 179.357 301.971 180.207V180.207C301.635 181.156 301.578 182.111 301.801 183.069 302.027 184.021 302.662 184.681 303.705 185.051V185.051C304.411 185.301 305.083 185.342 305.719 185.173 306.357 184.998 306.969 184.681 307.555 184.22 308.146 183.761 308.752 183.23 309.374 182.628V182.628C310.089 181.917 310.827 181.184 311.588 180.426 312.348 179.669 313.178 179.013 314.078 178.46 314.973 177.897 315.957 177.532 317.029 177.363 318.102 177.194 319.297 177.344 320.616 177.81V177.81C322.391 178.439 323.745 179.411 324.679 180.726 325.604 182.045 326.131 183.526 326.26 185.168 326.393 186.819 326.166 188.472 325.58 190.128V190.128C325.053 191.615 324.364 193.034 323.513 194.386 322.666 195.745 321.636 196.935 320.424 197.955V197.955L316.982 194.805C318.058 194.23 319.044 193.471 319.94 192.53 320.836 191.588 321.491 190.533 321.905 189.365V189.365C322.181 188.583 322.293 187.8 322.241 187.015 322.188 186.23 321.955 185.518 321.541 184.879 321.121 184.238 320.486 183.767 319.636 183.466V183.466C318.762 183.156 317.95 183.143 317.203 183.427 316.462 183.713 315.735 184.166 315.023 184.786 314.309 185.413 313.583 186.101 312.846 186.853V186.853C312.198 187.531 311.524 188.182 310.825 188.806 310.124 189.437 309.38 189.968 308.594 190.4 307.808 190.832 306.939 191.101 305.987 191.207 305.031 191.305 303.994 191.156 302.876 190.76V190.76C301.101 190.131 299.809 189.181 299 187.91 298.192 186.64 297.764 185.215 297.718 183.638 297.672 182.06 297.925 180.49 298.478 178.928ZM62.494 144.095C62.494 138.114 67.343 133.265 73.324 133.265 79.305 133.265 84.154 138.114 84.154 144.095 84.154 150.076 79.305 154.925 73.324 154.925 67.343 154.925 62.494 150.076 62.494 144.095ZM312.839 144.095C312.839 138.114 317.688 133.265 323.669 133.265 329.651 133.265 334.499 138.114 334.499 144.095 334.499 150.076 329.651 154.925 323.669 154.925 317.688 154.925 312.839 150.076 312.839 144.095Z" fill="#471aa0" data-fill-palette-color="primary"></path>
                        </svg>
                      </g>
                    </svg>
                  </g>
                </svg>
              </g>
              <g></g>
            </svg>
          </g>
          <defs></defs>
        </svg>
        <rect width="395.52" height="279.72" fill="none" stroke="none" visibility="hidden"></rect>
      </g>
    </svg>
  </g>
</svg>